<?xml version="1.0" encoding="UTF-8" standalone="no"?>
<!-- Created with Inkscape (http://www.inkscape.org/) -->

<svg
   width="117.03062mm"
   height="122.08388mm"
   version="1.1"
   viewBox="0 0 117.03063 122.08388"
   xml:space="preserve"
   id="svg32"
   xmlns="http://www.w3.org/2000/svg"
   xmlns:svg="http://www.w3.org/2000/svg"><defs
     id="defs36" /><g
     id="layer1"
     transform="translate(-34.017195,-147.62283)"><g
       id="g4141"><path
         id="path988"
         style="fill:#ffffff;stroke:#7f8456;stroke-width:0;stroke-opacity:0.763158;paint-order:stroke fill markers"
         d="m 92.532685,269.70671 -56.937051,-30.49255 2e-6,-60.98511 56.93705,-30.49255 56.937044,30.49256 v 60.9851 z" /><path
         d="m 82.601725,157.56873 -33.088,17.851 a 9.8945,9.8945 0 0 1 4.0251,5.8312 l 9.1653,-4.9449 v -3.5124 c -0.0036,-2.4992 2.7109,-2.1828 3.7703,-2.1828 v -1.9513 c 0,-1.7738 2.3342,-3.2577 4.3987,-3.638 1.5735,-0.2746 5.0064,-0.17415 5.8539,0 1.7667,0.50024 2.7397,1.2766 3.1895,1.9983 l 5.235299,-2.8246 a 9.8945,9.8945 0 0 1 -2.553299,-6.519 9.8945,9.8945 0 0 1 0.0031,-0.10749 z m 19.784995,0.002 a 9.8945,9.8945 0 0 1 -2.557496,6.6316 l 4.795096,2.5869 c 0.50437,-0.65237 1.4485,-1.3206 3.0282,-1.7679 0.84747,-0.17415 4.2804,-0.2746 5.8539,0 2.0645,0.38034 4.3987,1.8642 4.3987,3.638 v 1.9513 c 1.0594,0 3.7743,-0.31642 3.7703,2.1828 v 3.1952 l 9.9963,5.393 a 9.8945,9.8945 0 0 1 3.9393,-5.8865 z m 34.91,34.994 v 32.031 a 9.8945,9.8945 0 0 1 3.8339,-0.8754 9.8945,9.8945 0 0 1 3.5951,0.63252 v -31.522 a 9.8945,9.8945 0 0 1 -3.3812,0.61598 9.8945,9.8945 0 0 1 -4.0478,-0.8816 z m -89.624995,0.12661 a 9.8945,9.8945 0 0 1 -3.6763,0.75499 9.8945,9.8945 0 0 1 -3.7372,-0.73949 v 31.739 a 9.8945,9.8945 0 0 1 3.5233,-0.72554 9.8945,9.8945 0 0 1 3.8902,0.76378 z m 83.996995,43.11501 -31.845996,17.181 a 9.8945,9.8945 0 0 1 2.560596,6.4105 l 0.003,0.21446 a 9.8945,9.8945 0 0 1 -5.2e-4,0.004 l 33.242,-17.934 a 9.8945,9.8945 0 0 1 -3.9594,-5.8761 z m -78.142995,0.12248 a 9.8945,9.8945 0 0 1 -4.0297,5.8296 l 33.11,17.862 a 9.8945,9.8945 0 0 1 2.565199,-6.6192 z"
         color="#000000"
         fill="#161a1d"
         stroke-width="0.098"
         id="path2"
         style="-inkscape-stroke:none" /></g><g
       id="g1233"
       transform="translate(0,5.8208336)"><path
         id="path371"
         style="fill:#ffffff;stroke:#7f8456;stroke-width:0;stroke-opacity:0.763158;paint-order:stroke fill markers"
         d="m 102.477,151.74701 a 9.944993,9.9449844 0 0 1 -9.8912,9.94484 9.944993,9.9449844 0 0 1 -9.998206,-9.83725 9.944993,9.9449844 0 0 1 9.783034,-10.05127 9.944993,9.9449844 0 0 1 10.104042,9.72852" /><path
         d="m 99.626427,151.74705 a 7.0945,7.0945 0 0 1 -7.0561,7.0944 7.0945,7.0945 0 0 1 -7.1325,-7.0176 7.0945,7.0945 0 0 1 6.979,-7.1703 7.0945,7.0945 0 0 1 7.208,6.9401"
         color="#000000"
         id="path4"
         style="fill:#0354a5;fill-opacity:1" /></g><g
       id="g1257"
       transform="translate(-34.924005,35.471915)"><path
         id="path1229"
         style="fill:#ffffff;stroke:#7f8456;stroke-width:0;stroke-opacity:0.763158;paint-order:stroke fill markers"
         d="m 185.97183,197.85593 a 9.944993,9.9449844 0 0 1 -9.8912,9.94484 9.944993,9.9449844 0 0 1 -9.9982,-9.83726 9.944993,9.9449844 0 0 1 9.78303,-10.05126 9.944993,9.9449844 0 0 1 10.10405,9.72851" /><path
         d="m 183.12134,197.85588 a 7.0945,7.0945 0 0 1 -7.0561,7.0944 7.0945,7.0945 0 0 1 -7.1325,-7.0176 7.0945,7.0945 0 0 1 6.979,-7.1703 7.0945,7.0945 0 0 1 7.208,6.9401"
         color="#000000"
         id="path6"
         style="fill:#0354a5;fill-opacity:1" /></g><g
       id="g1253"
       transform="translate(-90.748665,98.178691)"><path
         id="path1223"
         style="fill:#ffffff;stroke:#7f8456;stroke-width:0;stroke-opacity:0.763158;paint-order:stroke fill markers"
         d="m 193.22566,161.46046 a 9.944993,9.9449844 0 0 1 -9.8912,9.94484 9.944993,9.9449844 0 0 1 -9.9982,-9.83725 9.944993,9.9449844 0 0 1 9.78303,-10.05126 9.944993,9.9449844 0 0 1 10.10405,9.72851" /><path
         d="m 190.37517,161.46041 a 7.0945,7.0945 0 0 1 -7.0561,7.0944 7.0945,7.0945 0 0 1 -7.1325,-7.0176 7.0945,7.0945 0 0 1 6.979,-7.1703 7.0945,7.0945 0 0 1 7.208,6.9401"
         color="#000000"
         id="path8"
         style="fill:#0354a5;fill-opacity:1" /></g><g
       id="g1249"
       transform="translate(-141.44283,96.5415)"><path
         id="path1227"
         style="fill:#ffffff;stroke:#7f8456;stroke-width:0;stroke-opacity:0.763158;paint-order:stroke fill markers"
         d="m 195.35002,136.78635 a 9.944993,9.9449844 0 0 1 -9.8912,9.94484 9.944993,9.9449844 0 0 1 -9.9982,-9.83726 9.944993,9.9449844 0 0 1 9.78303,-10.05126 9.944993,9.9449844 0 0 1 10.10404,9.72851" /><path
         d="m 192.49953,136.7863 a 7.0945,7.0945 0 0 1 -7.0561,7.0944 7.0945,7.0945 0 0 1 -7.1325,-7.0176 7.0945,7.0945 0 0 1 6.979,-7.1703 7.0945,7.0945 0 0 1 7.208,6.9401"
         color="#000000"
         id="path12"
         style="fill:#0354a5;fill-opacity:1" /></g><g
       id="g1237"
       transform="translate(-3.7041669,3.7041669)"><path
         id="path1219"
         style="fill:#ffffff;stroke:#7f8456;stroke-width:0;stroke-opacity:0.763158;paint-order:stroke fill markers"
         d="m 154.75099,180.17801 a 9.944993,9.9449844 0 0 1 -9.8912,9.94484 9.944993,9.9449844 0 0 1 -9.9982,-9.83725 9.944993,9.9449844 0 0 1 9.78303,-10.05127 9.944993,9.9449844 0 0 1 10.10404,9.72852" /><path
         d="m 151.90054,180.17792 a 7.0945,7.0945 0 0 1 -7.0561,7.0944 7.0945,7.0945 0 0 1 -7.1325,-7.0176 7.0945,7.0945 0 0 1 6.979,-7.1703 7.0945,7.0945 0 0 1 7.208,6.9401"
         color="#000000"
         id="path14"
         style="fill:#0354a5;fill-opacity:1" /></g><g
       id="g1241"
       transform="translate(-111.94736,40.817789)"><path
         id="path1225"
         style="fill:#ffffff;stroke:#7f8456;stroke-width:0;stroke-opacity:0.763158;paint-order:stroke fill markers"
         d="m 165.85555,143.06439 a 9.944993,9.9449844 0 0 1 -9.8912,9.94484 9.944993,9.9449844 0 0 1 -9.99821,-9.83725 9.944993,9.9449844 0 0 1 9.78304,-10.05126 9.944993,9.9449844 0 0 1 10.10404,9.72851" /><path
         d="m 163.00506,143.06434 a 7.0945,7.0945 0 0 1 -7.0561,7.0944 7.0945,7.0945 0 0 1 -7.1325,-7.0176 7.0945,7.0945 0 0 1 6.979,-7.1703 7.0945,7.0945 0 0 1 7.208,6.9401"
         color="#000000"
         id="path10"
         style="fill:#0354a5;fill-opacity:1" /></g></g><g
     id="layer2"
     transform="translate(-34.017195,-147.62283)"><g
       fill="#0353a5"
       stroke-width="0"
       id="g30"
       transform="translate(6.2252,120.64261)"
       style="fill:#0354a5;fill-opacity:1"><path
         transform="translate(-20.167,3.3676)"
         d="m 95.382,124.22 v -6.1516 l 2.5135,-7.0776 v -8.7312 l -1.9844,-5.0271 c -1.9558,-3.0876 -2.4617,-6.0989 -2.0505,-9.062 -2.0375,-2.1793 -3.4688,-4.6416 -4.5729,-7.2565 -0.71225,-3.6475 -0.422,-7.0611 0.73641,-10.272 0.83968,-2.871 1.1753,-5.8495 2.5135,-8.6651 0.28663,-1.4066 0.70556,-2.8365 0.99219,-4.2995 l 0.39688,-2.1167 v -0.90922 h -2.9318 v -3.087 h 1.9644 v -1.0758 h 6.0336 c 2.4142,2.526 0.97316,4.2673 0,6.1038 -0.65085,0.85606 -0.96926,1.9199 -1.1225,3.087 -0.0973,0.85631 -0.17071,1.5419 -0.3718,2.6942 -0.23316,2.0688 -0.50862,3.7568 -0.66146,6.5484 l -0.26458,2.5797 c 1.1457,1.7044 1.8591,2.647 1.0831,6.7303 l 0.84336,0.32246 c 3.6391,2.8308 5.5699,3.8568 8.0119,4.2251 v 45.07 l -1.7425,0.0289 c -0.84331,0.0463 -1.2704,0.33371 -1.573,0.54156 -1.8368,-1.4147 -2.8772,-2.8446 -7.8135,-4.2003 z m 22.258,0 v -6.1516 l -2.5135,-7.0776 v -8.7312 l 1.9844,-5.0271 c 1.9558,-3.0876 2.4617,-6.0989 2.0505,-9.062 2.0376,-2.1793 3.4688,-4.6416 4.5729,-7.2565 0.71226,-3.6475 0.422,-7.0611 -0.73641,-10.272 -0.83968,-2.871 -1.1753,-5.8495 -2.5135,-8.6651 -0.28663,-1.4066 -0.70556,-2.8365 -0.99219,-4.2995 l -0.39687,-2.1167 v -0.90922 h 2.9318 v -3.087 h -1.9644 v -1.0758 h -6.0336 c -2.4142,2.526 -0.97316,4.2673 0,6.1038 0.65085,0.85606 0.96926,1.9199 1.1225,3.087 0.0973,0.85631 0.17071,1.5419 0.3718,2.6942 0.23316,2.0688 0.50862,3.7568 0.66146,6.5484 l 0.26459,2.5797 c -1.1457,1.7044 -1.8592,2.647 -1.0831,6.7303 l -0.84336,0.32246 c -3.6391,2.8308 -5.5699,3.8568 -8.0119,4.2251 v 45.07 l 1.7425,0.0289 c 0.84331,0.0463 1.2704,0.33371 1.573,0.54156 1.8368,-1.4147 2.8772,-2.8446 7.8135,-4.2003 z"
         color="#000000"
         style="fill:#0354a5;fill-opacity:1;-inkscape-stroke:none;paint-order:stroke fill markers"
         id="path20" /><path
         d="m 92.515,76.062 a 6.1702,6.1702 0 0 1 -6.1368,6.1701 6.1702,6.1702 0 0 1 -6.2032,-6.1034 6.1702,6.1702 0 0 1 6.0697,-6.2361 6.1702,6.1702 0 0 1 6.2689,6.0359"
         color="#000000"
         style="fill:#0354a5;fill-opacity:1;-inkscape-stroke:none;paint-order:stroke fill markers"
         id="path22" /><path
         d="m 81.251,54.68 h 10.186 v 3.6049 H 81.251 Z"
         color="#000000"
         style="fill:#0354a5;fill-opacity:1;-inkscape-stroke:none;paint-order:stroke fill markers"
         id="path24" /><path
         d="m 69.784,46.627 v 19.511 h -4.655 v -2.5445 h -2.9704 v -3.5057 h -2.9218 v -7.3763 h 2.9239 v -3.4406 h 2.9704 v -2.6448 z"
         color="#000000"
         style="fill:#0354a5;fill-opacity:1;-inkscape-stroke:none;paint-order:stroke fill markers"
         id="path26" /><path
         d="m 102.83,46.627 v 19.511 h 4.655 v -2.5445 h 2.9704 v -3.5057 h 2.9218 v -7.3763 h -2.9239 v -3.4406 h -2.9704 v -2.6448 z"
         color="#000000"
         style="fill:#0354a5;fill-opacity:1;-inkscape-stroke:none;paint-order:stroke fill markers"
         id="path28" /></g></g></svg>
